<svg width="156" height="142" viewBox="0 0 156 142" fill="none" xmlns="http://www.w3.org/2000/svg">
<path d="M139.404 70.2118H98.7411C94.2904 70.2118 90.0704 71.2184 86.2971 73.0157V29.5492C86.2971 22.6879 91.8798 17.1052 98.7411 17.1052H139.404V70.2118ZM98.7411 0.509262C85.3185 0.509262 73.9998 9.66524 70.6865 22.0572L70.6732 22.1039C70.5575 22.5422 70.4521 22.9832 70.3572 23.4265L70.3265 23.5559C70.2393 23.9764 70.1611 24.3987 70.0918 24.8225C70.0812 24.8919 70.0665 24.9599 70.0558 25.0292C69.9932 25.4265 69.9425 25.8292 69.8972 26.2319C69.8852 26.3292 69.8705 26.4252 69.8598 26.5225C69.8213 26.9148 69.7902 27.3077 69.7665 27.7012C69.7598 27.8119 69.7478 27.9199 69.7412 28.0292C69.7158 28.5332 69.7012 29.0399 69.7012 29.5492V86.349C65.8147 84.498 61.5633 83.5399 57.2585 83.5451H16.596V30.4385H57.2585C60.3927 30.4397 63.4098 31.6295 65.7012 33.7678V29.5492C65.7012 24.7732 66.7278 20.2359 68.5598 16.1332C64.9851 14.6175 61.1413 13.8384 57.2585 13.8426H0V100.141H57.2585C64.1198 100.141 69.7012 105.722 69.7012 112.585V141.216L77.9158 133.842L86.2971 141.216V99.2517C86.2971 92.389 91.8798 86.8077 98.7411 86.8077H156V0.509262H98.7411Z" fill="#5C45FE"/>
</svg>
